<?xml version="1.0" encoding="UTF-8" standalone="no"?>
<svg width="523px" height="544px" viewBox="0 0 523 544" version="1.1" xmlns="http://www.w3.org/2000/svg" xmlns:xlink="http://www.w3.org/1999/xlink" xmlns:sketch="http://www.bohemiancoding.com/sketch/ns">
    <!-- Generator: Sketch 3.4.4 (17249) - http://www.bohemiancoding.com/sketch -->
    <title>plugin-icons</title>
    <desc>Created with Sketch.</desc>
    <defs>
        <linearGradient x1="110.700576%" y1="-34.8698417%" x2="0%" y2="115.912158%" id="linearGradient-1">
            <stop stop-color="#074A39" offset="0%"></stop>
            <stop stop-color="#10785C" offset="24.0648013%"></stop>
            <stop stop-color="#1CB48A" offset="100%"></stop>
        </linearGradient>
        <linearGradient x1="26.9006784%" y1="0%" x2="59.8530751%" y2="85.7488063%" id="linearGradient-2">
            <stop stop-color="#FBDA61" offset="0%"></stop>
            <stop stop-color="#F76B1C" offset="100%"></stop>
        </linearGradient>
    </defs>
    <g id="Page-1" stroke="none" stroke-width="1" fill="none" fill-rule="evenodd" sketch:type="MSPage">
        <circle id="Oval-Color" stroke="#979797" fill="url(#linearGradient-1)" sketch:type="MSShapeGroup" cx="261.5" cy="261.5" r="260.5"></circle>
        <g id="searchplus" sketch:type="MSLayerGroup" transform="translate(142.000000, 142.000000)">
            <g id="Group" transform="translate(0.984375, 0.984375)" fill="#FFFFFF" sketch:type="MSShapeGroup">
                <path d="M97.3573103,1.42108547e-14 C110.541113,1.42108547e-14 123.147448,2.5776024 135.176315,7.7328072 C147.205183,12.888012 157.557848,19.803846 166.234311,28.4803092 C174.910775,37.1567724 181.826609,47.5094378 186.981813,59.5383053 C192.137018,71.5671729 194.714621,84.1735078 194.714621,97.3573103 C194.714621,108.681859 192.86948,119.52748 189.179198,129.894174 C185.488917,140.260868 180.235087,149.669793 173.417709,158.120949 L234.857524,219.476337 C236.942086,221.560899 237.984367,224.124388 237.984367,227.166804 C237.984367,230.265504 236.956115,232.843107 234.899611,234.899611 C232.843107,236.956115 230.265504,237.984367 227.166804,237.984367 C224.124388,237.984367 221.560899,236.942086 219.476337,234.857524 L158.120949,173.417709 C149.669793,180.234918 140.260868,185.488748 129.894174,189.179198 C119.52748,192.869649 108.681859,194.71479 97.3573103,194.714621 C84.1735078,194.714621 71.5671729,192.137018 59.5383053,186.981813 C47.5094378,181.826609 37.1567724,174.910775 28.4803092,166.234311 C19.803846,157.557848 12.888012,147.205183 7.7328072,135.176315 C2.5776024,123.147448 8.80643834e-15,110.541113 1.42108547e-14,97.3573103 C1.96152711e-14,84.1735078 2.5776024,71.5671729 7.7328072,59.5383053 C12.888012,47.5094378 19.803846,37.1567724 28.4803092,28.4803092 C37.1567724,19.803846 47.5094378,12.888012 59.5383053,7.7328072 C71.5671729,2.5776024 84.1735078,8.80643834e-15 97.3573103,1.42108547e-14 L97.3573103,1.42108547e-14 Z M97.3573103,21.6348733 C87.1031854,21.6348733 77.2998451,23.6350083 67.9472895,27.6352782 C58.5947338,31.6355481 50.5379938,37.0161452 43.7770695,43.7770695 C37.0161452,50.5379938 31.6355481,58.5947338 27.6352782,67.9472895 C23.6350083,77.2998451 21.6348733,87.1031854 21.6348733,97.3573103 C21.6348733,107.611435 23.6350083,117.414775 27.6352782,126.767331 C31.6355481,136.119887 37.0161452,144.176627 43.7770695,150.937551 C50.5379938,157.698475 58.5947338,163.079072 67.9472895,167.079342 C77.2998451,171.079612 87.1031854,173.079747 97.3573103,173.079747 C107.611435,173.079747 117.414775,171.079612 126.767331,167.079342 C136.119887,163.079072 144.176627,157.698475 150.937551,150.937551 C157.698475,144.176627 163.079072,136.119887 167.079342,126.767331 C171.079612,117.414775 173.079747,107.611435 173.079747,97.3573103 C173.079747,87.1031854 171.079612,77.2998451 167.079342,67.9472895 C163.079072,58.5947338 157.698475,50.5379938 150.937551,43.7770695 C144.176627,37.0161452 136.119887,31.6355481 126.767331,27.6352782 C117.414775,23.6350083 107.611435,21.6348733 97.3573103,21.6348733 L97.3573103,21.6348733 Z M97.3573103,54.0873101 C100.343442,54.0873101 102.892902,55.1437045 105.00569,57.2564934 C107.118479,59.3692822 108.174874,61.9187423 108.174874,64.9048735 L108.174874,86.5397468 L129.809747,86.5397468 C132.795878,86.5397468 135.345338,87.5961413 137.458127,89.7089301 C139.570916,91.821719 140.62731,94.371179 140.62731,97.3573103 C140.62731,100.343442 139.570916,102.892902 137.458127,105.00569 C135.345338,107.118479 132.795878,108.174874 129.809747,108.174874 L108.174874,108.174874 L108.174874,129.809747 C108.174874,132.795878 107.118479,135.345338 105.00569,137.458127 C102.892902,139.570916 100.343442,140.62731 97.3573103,140.62731 C94.371179,140.62731 91.821719,139.570916 89.7089301,137.458127 C87.5961413,135.345338 86.5397468,132.795878 86.5397468,129.809747 L86.5397468,108.174874 L64.9048735,108.174874 C61.9187423,108.174874 59.3692822,107.118479 57.2564934,105.00569 C55.1437045,102.892902 54.0873101,100.343442 54.0873101,97.3573103 C54.0873101,94.371179 55.1437045,91.821719 57.2564934,89.7089301 C59.3692822,87.5961413 61.9187423,86.5397468 64.9048735,86.5397468 L86.5397468,86.5397468 L86.5397468,64.9048735 C86.5397468,61.9187423 87.5961413,59.3692822 89.7089301,57.2564934 C91.821719,55.1437045 94.371179,54.0873101 97.3573103,54.0873101 L97.3573103,54.0873101 Z" id="Shape"></path>
            </g>
            <g id="invalid-icon" transform="translate(180.000000, 226.000000)" fill="url(#linearGradient-2)" sketch:type="MSShapeGroup">
                <g id="Shape">
                    <g id="Page-1">
                        <path d="M111.264468,6.4699765 C106.232265,-2.15665883 93.7677355,-2.15665883 88.7355315,6.4699765 L1.79608857,155.509022 C-3.27530265,164.202835 2.99569727,175.120878 13.060557,175.120878 L186.939443,175.120878 C197.004303,175.120878 203.275303,164.202835 198.203911,155.509022 L111.264468,6.4699765 L111.264468,6.4699765 L111.264468,6.4699765 L111.264468,6.4699765 L111.264468,6.4699765 L111.264468,6.4699765 L111.264468,6.4699765 L111.264468,6.4699765" id="Shape"></path>
                    </g>
                </g>
            </g>
        </g>
    </g>
</svg>